HIERARCHY
ROOT Hips
{
	OFFSET 0.00000 0.00000 0.00000
	CHANNELS 6 Xposition Yposition Zposition Zrotation Yrotation Xrotation 
	JOINT LHipJoint
	{
		OFFSET 0 0 0
		CHANNELS 3 Zrotation Yrotation Xrotation
		JOINT LeftUpLeg
		{
			OFFSET 1.26600 -1.82114 0.91038
			CHANNELS 3 Zrotation Yrotation Xrotation
			JOINT LeftLeg
			{
				OFFSET 2.50076 -6.87080 0.00000
				CHANNELS 3 Zrotation Yrotation Xrotation
				JOINT LeftFoot
				{
					OFFSET 2.57364 -7.07102 0.00000
					CHANNELS 3 Zrotation Yrotation Xrotation
					JOINT LeftToeBase
					{
						OFFSET 0.13572 -0.37290 1.97004
						CHANNELS 3 Zrotation Yrotation Xrotation
						End Site
						{
							OFFSET 0.00000 -0.00000 1.01383
						}
					}
				}
			}
		}
	}
	JOINT RHipJoint
	{
		OFFSET 0 0 0
		CHANNELS 3 Zrotation Yrotation Xrotation
		JOINT RightUpLeg
		{
			OFFSET -1.20803 -1.82114 0.91038
			CHANNELS 3 Zrotation Yrotation Xrotation
			JOINT RightLeg
			{
				OFFSET -2.54916 -7.00377 0.00000
				CHANNELS 3 Zrotation Yrotation Xrotation
				JOINT RightFoot
				{
					OFFSET -2.56374 -7.04382 0.00000
					CHANNELS 3 Zrotation Yrotation Xrotation
					JOINT RightToeBase
					{
						OFFSET -0.23520 -0.64621 2.09921
						CHANNELS 3 Zrotation Yrotation Xrotation
						End Site
						{
							OFFSET -0.00000 -0.00000 1.10065
						}
					}
				}
			}
		}
	}
	JOINT LowerBack
	{
		OFFSET 0 0 0
		CHANNELS 3 Zrotation Yrotation Xrotation
		JOINT Spine
		{
			OFFSET 0.05492 2.10797 -0.12074
			CHANNELS 3 Zrotation Yrotation Xrotation
			JOINT Spine1
			{
				OFFSET 0.04577 2.11592 -0.04483
				CHANNELS 3 Zrotation Yrotation Xrotation
				JOINT Neck
				{
					OFFSET 0 0 0
					CHANNELS 3 Zrotation Yrotation Xrotation
					JOINT Neck1
					{
						OFFSET -0.10759 1.80167 0.15770
						CHANNELS 3 Zrotation Yrotation Xrotation
						JOINT Head
						{
							OFFSET 0.09237 1.77509 -0.40848
							CHANNELS 3 Zrotation Yrotation Xrotation
							End Site
							{
								OFFSET 0.03805 1.84093 -0.15754
							}
						}
					}
				}
				JOINT LeftShoulder
				{
					OFFSET 0 0 0
					CHANNELS 3 Zrotation Yrotation Xrotation
					JOINT LeftArm
					{
						OFFSET 3.42372 1.09575 -0.28209
						CHANNELS 3 Zrotation Yrotation Xrotation
						JOINT LeftForeArm
						{
							OFFSET 4.95681 -0.00000 0.00000
							CHANNELS 3 Zrotation Yrotation Xrotation
							JOINT LeftHand
							{
								OFFSET 3.40915 -0.00000 0.00000
								CHANNELS 3 Zrotation Yrotation Xrotation
								JOINT LeftFingerBase
								{
									OFFSET 0 0 0
									CHANNELS 3 Zrotation Yrotation Xrotation
									JOINT LeftHandIndex1
									{
										OFFSET 0.61640 -0.00000 0.00000
										CHANNELS 3 Zrotation Yrotation Xrotation
										End Site
										{
											OFFSET 0.49696 -0.00000 0.00000
										}
									}
								}
								JOINT LThumb
								{
									OFFSET 0 0 0
									CHANNELS 3 Zrotation Yrotation Xrotation
									End Site
									{
										OFFSET 0.50455 -0.00000 0.50455
									}
								}
							}
						}
					}
				}
				JOINT RightShoulder
				{
					OFFSET 0 0 0
					CHANNELS 3 Zrotation Yrotation Xrotation
					JOINT RightArm
					{
						OFFSET -3.24731 1.15872 -0.32221
						CHANNELS 3 Zrotation Yrotation Xrotation
						JOINT RightForeArm
						{
							OFFSET -5.35200 -0.00000 0.00000
							CHANNELS 3 Zrotation Yrotation Xrotation
							JOINT RightHand
							{
								OFFSET -3.43721 -0.00000 -0.00000
								CHANNELS 3 Zrotation Yrotation Xrotation
								JOINT RightFingerBase
								{
									OFFSET 0 0 0
									CHANNELS 3 Zrotation Yrotation Xrotation
									JOINT RightHandIndex1
									{
										OFFSET -0.72009 -0.00000 0.00000
										CHANNELS 3 Zrotation Yrotation Xrotation
										End Site
										{
											OFFSET -0.58056 -0.00000 0.00000
										}
									}
								}
								JOINT RThumb
								{
									OFFSET 0 0 0
									CHANNELS 3 Zrotation Yrotation Xrotation
									End Site
									{
										OFFSET -0.58942 -0.00000 0.58942
									}
								}
							}
						}
					}
				}
			}
		}
	}
}
MOTION
Frames: 7
Frame Time: .0083333
-6.9079 17.2463 -21.0871 0 0 0 0 0 0 -21 0 0 0 0 0 0 0 0 0 0 0 0 0 0 21 0 0 0 0 0 0 0 0 0 0 0 0 0 0 0 0 0 0 0 0 0 0 -16 0 0 21 0 0 11 0 0 0 -8 0 0 0 0 0 0 0 0 0 0 0 0 0 0 0 0 0 0 0 0 8 0 0 0 0 0 0 0 0 0 0 0 0 0 0 0 0 0
-6.9079 17.2463 -21.0871 -42.0384 77.4834 -38.6329 0.0000 0.0000 0.0000 -10.1451 -3.5629 -26.9712 1.6211 8.0277 22.7983 -0.1015 -5.8002 3.5623 2.1582 9.1881 26.3856 0.0000 0.0000 0.0000 25.5227 -5.6688 10.4257 -2.3820 -9.6201 27.7550 -0.1168 5.3582 10.5345 -0.0843 -1.8732 5.1553 6.1426 2.9279 2.1654 2.5732 3.9957 3.1525 -0.7728 2.1375 2.2749 -7.1846 -0.5804 -13.5190 0.2230 3.2218 38.8411 2.0939 0.8863 16.0462 0.0000 0.0000 0.0000 -88.4480 7.5093 17.6664 16.2162 -25.8130 -3.7396 -0.0000 -0.0000 0.3420 16.0343 20.5926 5.7720 -7.1250 0.0000 -0.0000 -12.5568 50.9063 -1.8523 0.0000 0.0000 0.0000 88.1892 -2.3440 16.4038 -14.3699 23.2610 -2.9726 0.0000 -0.0000 -9.6357 -21.5837 11.5509 -4.5292 7.1250 -0.0000 -0.0000 3.8946 -17.6014 2.5405
-6.7784 17.2711 -21.1097 -39.3670 77.8627 -35.9304 0.0000 0.0000 0.0000 -11.1632 -3.4746 -26.5029 1.5978 7.9726 22.6309 -0.0937 -5.6681 3.8354 2.2496 9.3677 26.9524 0.0000 0.0000 0.0000 24.7992 -4.9917 9.3288 -2.7953 -10.3560 30.1374 -0.2215 4.2545 11.4935 -0.1146 -2.1823 6.0098 5.5865 2.8766 2.1035 2.2550 3.9151 3.0931 -0.7934 2.0825 2.2255 -6.6832 -0.5336 -13.6911 -0.1682 3.3245 38.9970 1.8595 0.9415 16.1830 0.0000 -0.0000 0.0000 -88.2079 7.5979 17.6052 16.2429 -25.8489 -3.7512 -0.0000 -0.0000 0.2071 15.9270 20.3404 5.6648 -7.1250 0.0000 -0.0000 -12.5644 50.6371 -1.7695 0.0000 -0.0000 0.0000 88.4615 -2.6906 16.4723 -14.5935 23.5768 -3.0615 0.0000 -0.0000 -9.3238 -21.2412 11.5100 -4.4350 7.1250 -0.0000 -0.0000 4.1332 -17.6751 2.6902
-6.6512 17.2913 -21.1283 -37.6095 77.9972 -34.0838 0.0000 0.0000 0.0000 -11.9377 -3.1167 -26.1194 1.5539 7.8674 22.3121 -0.0923 -5.7269 4.1829 2.2169 9.3040 26.7510 0.0000 0.0000 0.0000 24.2415 -4.7379 8.1766 -3.2110 -11.0291 32.3780 -0.2953 4.0528 12.5725 -0.0880 -1.9129 5.2650 5.2511 2.8558 1.9534 2.1429 3.8734 3.0197 -0.7185 2.0519 2.2154 -7.3172 -0.4367 -13.9458 0.4520 3.4924 39.3090 2.2856 0.9932 16.3737 0.0000 -0.0000 0.0000 -88.0335 7.7480 17.9757 16.2937 -25.9173 -3.7734 -0.0000 0.0000 -0.3230 16.1441 20.1686 5.6995 -7.1250 0.0000 -0.0000 -12.2908 50.5003 -1.6882 0.0000 -0.0000 0.0000 88.1668 -2.8967 17.2105 -14.7070 23.7364 -3.1070 0.0000 -0.0000 -9.6981 -20.7517 11.5637 -4.3435 7.1250 -0.0000 -0.0000 4.4776 -17.6606 2.9171
-6.5253 17.3133 -21.1450 -34.5621 78.5008 -31.2037 0.0000 0.0000 0.0000 -13.1675 -3.0116 -25.4059 1.5103 7.7614 21.9917 -0.0898 -5.7568 4.4763 2.4219 9.6945 27.9929 0.0000 0.0000 0.0000 23.1407 -4.7933 7.1453 -3.6221 -11.6398 34.4692 -0.3891 4.0039 13.9427 -0.0617 -1.6023 4.4077 4.2596 2.6739 1.9701 2.1926 3.6230 3.0405 -0.1236 1.9035 2.1450 -7.9629 -0.3656 -13.7816 0.6416 3.7186 39.2903 2.5171 1.0224 16.3002 -0.0000 -0.0000 0.0000 -88.5001 7.8960 17.8602 16.3483 -25.9907 -3.7973 -0.0000 0.0000 -0.5833 16.3334 20.3723 5.8250 -7.1250 0.0000 -0.0000 -12.1840 50.7346 -1.7440 -0.0000 -0.0000 0.0000 87.4593 -2.8002 17.7040 -14.6084 23.5977 -3.0674 0.0000 -0.0000 -9.5613 -20.7204 11.5821 -4.3431 7.1250 -0.0000 -0.0000 4.5000 -17.6438 2.9335
-6.3993 17.3430 -21.1645 -33.1977 78.8390 -30.1778 0.0000 0.0000 0.0000 -13.8453 -3.3186 -24.2746 1.4598 7.6362 21.6145 -0.0764 -5.3956 4.3860 2.7167 10.2216 29.6975 0.0000 0.0000 0.0000 22.5015 -4.6261 6.2894 -4.0439 -12.2185 36.5095 -0.5541 2.8850 15.4072 -0.1898 -2.8055 7.7377 3.7394 2.3534 2.2436 2.3364 3.2073 3.0769 0.2969 1.6829 1.9760 -8.0018 -0.1296 -13.4866 0.0495 4.2833 39.0991 2.3470 1.1824 16.1262 -0.0000 -0.0000 0.0000 -89.0168 8.1806 17.2755 16.5212 -26.2223 -3.8734 -0.0000 0.0000 -0.6312 16.2211 20.6339 5.8535 -7.1250 0.0000 -0.0000 -12.3917 50.9779 -1.8493 -0.0000 -0.0000 0.0000 86.8380 -2.8334 18.5701 -14.6184 23.6119 -3.0715 0.0000 -0.0000 -9.6748 -21.0335 11.6282 -4.4320 7.1250 -0.0000 -0.0000 4.2822 -17.5678 2.7978
-6.2743 17.3709 -21.1772 -32.7928 78.6450 -30.0584 0.0000 0.0000 0.0000 -14.0458 -3.1176 -23.3670 1.4251 7.5490 21.3523 -0.0773 -5.2768 3.9470 2.6020 10.0210 29.0447 0.0000 0.0000 0.0000 22.5060 -3.8913 5.6483 -4.4743 -12.7661 38.4992 -0.7438 0.9447 16.6616 -0.4750 -4.4199 12.2612 3.8906 2.3840 2.5470 2.3191 3.2675 3.1124 0.1816 1.7161 1.8540 -7.4869 -0.0550 -13.3609 -0.5147 4.4377 38.9758 2.0316 1.2518 16.0574 -0.0000 -0.0000 0.0000 -88.8069 8.2344 17.2476 16.6342 -26.3730 -3.9235 -0.0000 0.0000 -0.6859 15.9292 20.5394 5.7183 -7.1250 0.0000 -0.0000 -12.6379 50.8360 -1.8426 -0.0000 -0.0000 0.0000 86.7588 -2.9845 18.9438 -14.7785 23.8367 -3.1359 0.0000 -0.0000 -10.1683 -21.0700 11.6638 -4.4537 7.1250 -0.0000 -0.0000 4.2578 -17.5267 2.7856
